<?xml version="1.0" ?><svg style="enable-background:new 0 0 24 24;" version="1.1" viewBox="0 0 24 24" xml:space="preserve" xmlns="http://www.w3.org/2000/svg" xmlns:xlink="http://www.w3.org/1999/xlink"><style type="text/css">
	.st0{display:none;}
</style><g class="st0" id="grid"/><g id="icon"><path d="M6.294,18.246c0.128,0,0.256-0.049,0.354-0.146L18.14,6.607c0.195-0.195,0.195-0.512,0-0.707s-0.512-0.195-0.707,0   L6.294,17.039l-5.44-5.44c-0.195-0.195-0.512-0.195-0.707,0s-0.195,0.512,0,0.707L5.94,18.1   C6.038,18.197,6.166,18.246,6.294,18.246z"/><path d="M23.146,5.9L11.654,17.393c-0.195,0.195-0.195,0.512,0,0.707c0.098,0.098,0.226,0.146,0.354,0.146s0.256-0.049,0.354-0.146   L23.854,6.607c0.195-0.195,0.195-0.512,0-0.707S23.342,5.705,23.146,5.9z"/></g></svg>